<svg data-v-423bf9ae="" xmlns="http://www.w3.org/2000/svg" viewBox="0 0 464 90" class="iconLeft"><!----><!----><!----><g data-v-423bf9ae="" id="aa5a9015-6ebf-4fa2-b086-314cffdcd538" fill="black" transform="matrix(4.870129990766698,0,0,4.870129990766698,116.95387885487682,10.227272992995438)"><path d="M2.63 6.54L2.63 7.04L2.63 7.04Q2.63 8.78 3.82 8.78L3.82 8.78L3.82 8.78Q4.34 8.78 4.61 8.50L4.61 8.50L4.61 8.50Q4.89 8.22 4.89 7.76L4.89 7.76L6.97 7.76L6.97 8.06L6.97 8.06Q6.97 9.25 6.15 9.97L6.15 9.97L6.15 9.97Q5.33 10.68 3.78 10.68L3.78 10.68L3.78 10.68Q2.09 10.68 1.25 9.70L1.25 9.70L1.25 9.70Q0.42 8.72 0.42 7.04L0.42 7.04L0.42 6.54L0.42 6.54Q0.42 4.86 1.25 3.88L1.25 3.88L1.25 3.88Q2.09 2.90 3.78 2.90L3.78 2.90L3.78 2.90Q5.33 2.90 6.15 3.64L6.15 3.64L6.15 3.64Q6.97 4.38 6.97 5.64L6.97 5.64L6.97 5.96L4.89 5.96L4.89 5.96Q4.89 4.80 3.82 4.80L3.82 4.80L3.82 4.80Q2.63 4.80 2.63 6.54L2.63 6.54ZM12.11 2.90L12.11 2.90L12.11 2.90Q12.26 2.90 12.32 2.91L12.32 2.91L12.32 5.04L11.94 5.04L11.94 5.04Q10.79 5.04 10.35 5.68L10.35 5.68L10.35 10.50L8.13 10.50L8.13 5.18L8.01 3.08L9.98 3.08L10.14 3.95L10.14 3.95Q10.88 2.90 12.11 2.90ZM15.25 3.08L16.65 7.81L18.05 3.08L20.45 3.08L17.84 10.11L16.88 13.30L14.25 13.30L15.44 10.11L12.84 3.08L15.25 3.08ZM25.34 10.68L25.34 10.68L25.34 10.68Q24.14 10.68 23.44 9.87L23.44 9.87L23.44 13.30L21.22 13.30L21.22 5.18L21.10 3.08L23.07 3.08L23.23 3.99L23.23 3.99Q23.95 2.90 25.34 2.90L25.34 2.90L25.34 2.90Q28.10 2.90 28.10 6.54L28.10 6.54L28.10 7.04L28.10 7.04Q28.10 10.68 25.34 10.68ZM24.70 4.80L24.70 4.80L24.70 4.80Q23.91 4.80 23.44 5.50L23.44 5.50L23.44 8.08L23.44 8.08Q23.91 8.78 24.70 8.78L24.70 8.78L24.70 8.78Q25.89 8.78 25.89 7.04L25.89 7.04L25.89 6.54L25.89 6.54Q25.89 4.80 24.70 4.80ZM32.13 0.98L32.13 3.08L34.03 3.08L34.03 5.01L32.13 5.01L32.13 7.69L32.13 7.69Q32.13 8.33 32.40 8.55L32.40 8.55L32.40 8.55Q32.66 8.78 33.22 8.78L33.22 8.78L33.22 8.78Q33.70 8.78 33.89 8.68L33.89 8.68L33.89 10.50L33.89 10.50Q33.57 10.68 32.70 10.68L32.70 10.68L32.70 10.68Q29.92 10.68 29.92 7.92L29.92 7.92L29.92 5.01L28.78 5.01L28.78 3.08L29.92 3.08L29.92 0.98L32.13 0.98ZM39.41 10.68L39.41 10.68L39.41 10.68Q38.21 10.68 37.51 9.87L37.51 9.87L37.51 13.30L35.29 13.30L35.29 5.18L35.17 3.08L37.14 3.08L37.30 3.99L37.30 3.99Q38.02 2.90 39.41 2.90L39.41 2.90L39.41 2.90Q42.17 2.90 42.17 6.54L42.17 6.54L42.17 7.04L42.17 7.04Q42.17 10.68 39.41 10.68ZM38.77 4.80L38.77 4.80L38.77 4.80Q37.98 4.80 37.51 5.50L37.51 5.50L37.51 8.08L37.51 8.08Q37.98 8.78 38.77 8.78L38.77 8.78L38.77 8.78Q39.96 8.78 39.96 7.04L39.96 7.04L39.96 6.54L39.96 6.54Q39.96 4.80 38.77 4.80ZM49.73 10.50L47.74 10.50L47.60 9.73L47.60 9.73Q46.72 10.68 45.28 10.68L45.28 10.68L45.28 10.68Q44.10 10.68 43.55 10.06L43.55 10.06L43.55 10.06Q43.01 9.44 43.01 8.46L43.01 8.46L43.01 8.32L43.01 8.32Q43.01 7.20 43.69 6.66L43.69 6.66L43.69 6.66Q44.37 6.13 45.67 5.94L45.67 5.94L47.38 5.67L47.38 5.67Q47.36 5.10 47.14 4.84L47.14 4.84L47.14 4.84Q46.91 4.58 46.37 4.58L46.37 4.58L46.37 4.58Q45.37 4.58 45.37 5.53L45.37 5.53L43.29 5.53L43.29 5.40L43.29 5.40Q43.29 4.30 44.02 3.60L44.02 3.60L44.02 3.60Q44.74 2.90 46.44 2.90L46.44 2.90L46.44 2.90Q48.17 2.90 48.88 3.60L48.88 3.60L48.88 3.60Q49.59 4.30 49.59 5.73L49.59 5.73L49.59 8.40L49.73 10.50ZM46.09 8.89L46.09 8.89L46.09 8.89Q46.84 8.89 47.38 8.33L47.38 8.33L47.38 6.97L46.12 7.17L46.12 7.17Q45.21 7.32 45.21 8.05L45.21 8.05L45.21 8.13L45.21 8.13Q45.21 8.46 45.42 8.67L45.42 8.67L45.42 8.67Q45.64 8.89 46.09 8.89ZM53.97 9.00L53.97 9.00L53.97 9.00Q54.96 9.00 54.96 8.27L54.96 8.27L54.96 8.27Q54.96 7.92 54.73 7.76L54.73 7.76L54.73 7.76Q54.49 7.59 53.86 7.53L53.86 7.53L53.86 7.53Q52.25 7.41 51.55 6.94L51.55 6.94L51.55 6.94Q50.85 6.47 50.85 5.45L50.85 5.45L50.85 5.32L50.85 5.32Q50.85 4.10 51.70 3.50L51.70 3.50L51.70 3.50Q52.56 2.90 53.97 2.90L53.97 2.90L53.97 2.90Q57.09 2.90 57.09 5.45L57.09 5.45L57.09 5.52L54.92 5.52L54.92 5.52Q54.92 4.58 53.97 4.58L53.97 4.58L53.97 4.58Q53.52 4.58 53.28 4.76L53.28 4.76L53.28 4.76Q53.03 4.94 53.03 5.25L53.03 5.25L53.03 5.25Q53.03 5.60 53.26 5.75L53.26 5.75L53.26 5.75Q53.48 5.91 54.10 5.96L54.10 5.96L54.10 5.96Q55.66 6.09 56.43 6.53L56.43 6.53L56.43 6.53Q57.19 6.97 57.19 8.06L57.19 8.06L57.19 8.19L57.19 8.19Q57.19 9.37 56.37 10.02L56.37 10.02L56.37 10.02Q55.55 10.68 53.97 10.68L53.97 10.68L53.97 10.68Q52.39 10.68 51.58 10.01L51.58 10.01L51.58 10.01Q50.76 9.34 50.76 8.22L50.76 8.22L50.76 8.15L52.96 8.15L52.96 8.15Q52.96 9.00 53.97 9.00ZM61.28 0.98L61.28 3.08L63.18 3.08L63.18 5.01L61.28 5.01L61.28 7.69L61.28 7.69Q61.28 8.33 61.54 8.55L61.54 8.55L61.54 8.55Q61.81 8.78 62.37 8.78L62.37 8.78L62.37 8.78Q62.85 8.78 63.04 8.68L63.04 8.68L63.04 10.50L63.04 10.50Q62.72 10.68 61.85 10.68L61.85 10.68L61.85 10.68Q59.07 10.68 59.07 7.92L59.07 7.92L59.07 5.01L57.93 5.01L57.93 3.08L59.07 3.08L59.07 0.98L61.28 0.98ZM71.06 6.59L71.06 7.59L66.33 7.59L66.33 7.59Q66.39 8.34 66.74 8.67L66.74 8.67L66.74 8.67Q67.09 9.00 67.73 9.00L67.73 9.00L67.73 9.00Q68.29 9.00 68.64 8.74L68.64 8.74L68.64 8.74Q68.98 8.47 68.98 8.12L68.98 8.12L71.06 8.12L71.06 8.18L71.06 8.18Q71.06 9.27 70.17 9.97L70.17 9.97L70.17 9.97Q69.29 10.68 67.72 10.68L67.72 10.68L67.72 10.68Q65.94 10.68 65.03 9.67L65.03 9.67L65.03 9.67Q64.12 8.67 64.12 6.99L64.12 6.99L64.12 6.59L64.12 6.59Q64.12 4.93 65.03 3.91L65.03 3.91L65.03 3.91Q65.94 2.90 67.63 2.90L67.63 2.90L67.63 2.90Q69.33 2.90 70.20 3.91L70.20 3.91L70.20 3.91Q71.06 4.91 71.06 6.59L71.06 6.59ZM68.84 5.99L68.84 5.99Q68.74 4.58 67.59 4.58L67.59 4.58L67.59 4.58Q66.44 4.58 66.35 5.99L66.35 5.99L68.84 5.99Z"></path></g><!----><g data-v-423bf9ae="" id="cce909df-99b4-42e9-b5fe-e2c15daaae9e" transform="matrix(1.1110288578850736,0,0,1.1110288578850736,-3.9875310725021365,-8.888230863080587)" stroke="none" fill="black"><path d="M12.494 89.006H93.5V16.101H61.098v8.1h24.301v56.704H20.595v-8.1h-8.101z"></path><path d="M4.394 64.704h48.604V24.201h-8.101V8H12.494v16.201h-8.1v40.503zm16.201-48.603h16.201v8.101H20.595v-8.101z"></path></g><!----></svg>